<svg width="80" height="83" viewBox="0 0 80 83" fill="none" xmlns="http://www.w3.org/2000/svg">
<circle cx="20.9715" cy="2.94404" r="1.56672" fill="#1E1E1E" fill-opacity="0.25"/>
<circle cx="30.4854" cy="2.94404" r="1.56672" fill="#1E1E1E" fill-opacity="0.25"/>
<circle cx="39.9992" cy="2.94404" r="1.56672" fill="#1E1E1E" fill-opacity="0.25"/>
<circle cx="49.5131" cy="2.94404" r="1.56672" fill="#1E1E1E" fill-opacity="0.25"/>
<circle cx="59.0268" cy="2.94404" r="1.56672" fill="#1E1E1E" fill-opacity="0.25"/>
<circle cx="11.4578" cy="12.4578" r="1.56672" fill="#1E1E1E" fill-opacity="0.25"/>
<circle cx="20.9715" cy="12.4578" r="1.56672" fill="#1E1E1E" fill-opacity="0.25"/>
<circle cx="30.4854" cy="12.4578" r="1.56672" fill="#1E1E1E" fill-opacity="0.25"/>
<circle cx="39.9992" cy="12.4578" r="1.56672" fill="#1E1E1E" fill-opacity="0.25"/>
<circle cx="49.5131" cy="12.4578" r="1.56672" fill="#1E1E1E" fill-opacity="0.25"/>
<circle cx="59.0268" cy="12.4578" r="1.56672" fill="#1E1E1E" fill-opacity="0.25"/>
<circle cx="68.5406" cy="12.4578" r="1.56672" fill="#1E1E1E" fill-opacity="0.25"/>
<circle cx="1.94403" cy="21.9716" r="1.56672" fill="#1E1E1E" fill-opacity="0.25"/>
<circle cx="11.4578" cy="21.9716" r="1.56672" fill="#1E1E1E" fill-opacity="0.25"/>
<circle cx="20.9715" cy="21.9716" r="1.56672" fill="#1E1E1E" fill-opacity="0.25"/>
<circle cx="30.4854" cy="21.9716" r="1.56672" fill="#1E1E1E" fill-opacity="0.25"/>
<circle cx="39.9992" cy="21.9716" r="1.56672" fill="#1E1E1E" fill-opacity="0.25"/>
<circle cx="49.5131" cy="21.9716" r="1.56672" fill="#1E1E1E" fill-opacity="0.25"/>
<circle cx="59.0268" cy="21.9716" r="1.56672" fill="#1E1E1E" fill-opacity="0.25"/>
<circle cx="68.5406" cy="21.9716" r="1.56672" fill="#1E1E1E" fill-opacity="0.25"/>
<circle cx="78.0544" cy="21.9716" r="1.56672" fill="#1E1E1E" fill-opacity="0.25"/>
<circle cx="1.94403" cy="31.4854" r="1.56672" fill="#1E1E1E" fill-opacity="0.25"/>
<circle cx="11.4578" cy="31.4854" r="1.56672" fill="#1E1E1E" fill-opacity="0.25"/>
<circle cx="20.9715" cy="31.4854" r="1.56672" fill="#1E1E1E" fill-opacity="0.25"/>
<circle cx="30.4854" cy="31.4854" r="1.56672" fill="#1E1E1E" fill-opacity="0.25"/>
<circle cx="39.9992" cy="31.4854" r="1.56672" fill="#1E1E1E" fill-opacity="0.25"/>
<circle cx="49.5131" cy="31.4854" r="1.56672" fill="#1E1E1E" fill-opacity="0.25"/>
<circle cx="59.0268" cy="31.4854" r="1.56672" fill="#1E1E1E" fill-opacity="0.25"/>
<circle cx="68.5406" cy="31.4854" r="1.56672" fill="#1E1E1E" fill-opacity="0.25"/>
<circle cx="78.0544" cy="31.4854" r="1.56672" fill="#1E1E1E" fill-opacity="0.25"/>
<circle cx="1.94403" cy="40.9992" r="1.56672" fill="#1E1E1E" fill-opacity="0.25"/>
<circle cx="11.4578" cy="40.9992" r="1.56672" fill="#1E1E1E" fill-opacity="0.25"/>
<circle cx="20.9715" cy="40.9992" r="1.56672" fill="#1E1E1E" fill-opacity="0.25"/>
<circle cx="30.4854" cy="40.9992" r="1.56672" fill="#1E1E1E" fill-opacity="0.25"/>
<circle cx="39.9992" cy="40.9992" r="1.56672" fill="#1E1E1E" fill-opacity="0.25"/>
<circle cx="49.5131" cy="40.9992" r="1.56672" fill="#1E1E1E" fill-opacity="0.25"/>
<circle cx="59.0268" cy="40.9992" r="1.56672" fill="#1E1E1E" fill-opacity="0.25"/>
<circle cx="68.5406" cy="40.9992" r="1.56672" fill="#1E1E1E" fill-opacity="0.25"/>
<circle cx="78.0544" cy="40.9992" r="1.56672" fill="#1E1E1E" fill-opacity="0.25"/>
<circle cx="1.94403" cy="50.513" r="1.56672" fill="#1E1E1E" fill-opacity="0.25"/>
<circle cx="11.4578" cy="50.513" r="1.56672" fill="#1E1E1E" fill-opacity="0.25"/>
<circle cx="20.9715" cy="50.513" r="1.56672" fill="#1E1E1E" fill-opacity="0.25"/>
<circle cx="30.4854" cy="50.513" r="1.56672" fill="#1E1E1E" fill-opacity="0.25"/>
<circle cx="39.9992" cy="50.513" r="1.56672" fill="#1E1E1E" fill-opacity="0.25"/>
<circle cx="49.5131" cy="50.513" r="1.56672" fill="#1E1E1E" fill-opacity="0.25"/>
<circle cx="59.0268" cy="50.513" r="1.56672" fill="#1E1E1E" fill-opacity="0.25"/>
<circle cx="68.5406" cy="50.513" r="1.56672" fill="#1E1E1E" fill-opacity="0.25"/>
<circle cx="78.0544" cy="50.513" r="1.56672" fill="#1E1E1E" fill-opacity="0.25"/>
<circle cx="1.94403" cy="60.0268" r="1.56672" fill="#1E1E1E" fill-opacity="0.25"/>
<circle cx="11.4578" cy="60.0268" r="1.56672" fill="#1E1E1E" fill-opacity="0.25"/>
<circle cx="20.9715" cy="60.0268" r="1.56672" fill="#1E1E1E" fill-opacity="0.25"/>
<circle cx="30.4854" cy="60.0268" r="1.56672" fill="#1E1E1E" fill-opacity="0.25"/>
<circle cx="39.9992" cy="60.0268" r="1.56672" fill="#1E1E1E" fill-opacity="0.25"/>
<circle cx="49.5131" cy="60.0268" r="1.56672" fill="#1E1E1E" fill-opacity="0.25"/>
<circle cx="59.0268" cy="60.0268" r="1.56672" fill="#1E1E1E" fill-opacity="0.25"/>
<circle cx="68.5406" cy="60.0268" r="1.56672" fill="#1E1E1E" fill-opacity="0.25"/>
<circle cx="78.0544" cy="60.0268" r="1.56672" fill="#1E1E1E" fill-opacity="0.25"/>
<circle cx="11.4578" cy="69.5406" r="1.56672" fill="#1E1E1E" fill-opacity="0.25"/>
<circle cx="20.9715" cy="69.5406" r="1.56672" fill="#1E1E1E" fill-opacity="0.25"/>
<circle cx="30.4854" cy="69.5406" r="1.56672" fill="#1E1E1E" fill-opacity="0.25"/>
<circle cx="39.9992" cy="69.5406" r="1.56672" fill="#1E1E1E" fill-opacity="0.25"/>
<circle cx="49.5131" cy="69.5406" r="1.56672" fill="#1E1E1E" fill-opacity="0.25"/>
<circle cx="59.0268" cy="69.5406" r="1.56672" fill="#1E1E1E" fill-opacity="0.25"/>
<circle cx="68.5406" cy="69.5406" r="1.56672" fill="#1E1E1E" fill-opacity="0.25"/>
<circle cx="20.9715" cy="79.0544" r="1.56672" fill="#1E1E1E" fill-opacity="0.25"/>
<circle cx="30.4854" cy="79.0544" r="1.56672" fill="#1E1E1E" fill-opacity="0.25"/>
<circle cx="39.9992" cy="79.0544" r="1.56672" fill="#1E1E1E" fill-opacity="0.25"/>
<circle cx="49.5131" cy="79.0544" r="1.56672" fill="#1E1E1E" fill-opacity="0.25"/>
<circle cx="59.0268" cy="79.0544" r="1.56672" fill="#1E1E1E" fill-opacity="0.25"/>
<rect x="38.0804" y="38.5951" width="4.85207" height="4.85207" rx="0.485207" fill="#FF7F4E"/>
<rect x="47.7845" y="67.7075" width="4.85207" height="4.85207" rx="0.485207" fill="#FF7F4E"/>
<circle cx="50.2106" cy="50.7254" r="2.42604" fill="#FF7F4E"/>
<circle cx="40.5064" cy="32.2875" r="2.42604" fill="#FF7F4E"/>
<circle cx="40.5064" cy="50.7254" r="2.42604" fill="#FF7F4E"/>
<circle cx="40.5064" cy="60.4295" r="2.42604" fill="#FF7F4E"/>
<circle cx="40.5064" cy="22.5833" r="2.42604" fill="#FF7F4E"/>
<circle cx="30.5597" cy="32.0448" r="2.42604" fill="#FF7F4E"/>
<circle cx="59.6721" cy="22.3407" r="2.42604" fill="#FF7F4E"/>
<rect x="28.1336" y="10.2106" width="4.85207" height="4.85207" rx="0.485207" fill="#FF7F4E"/>
<circle cx="40.2638" cy="12.6366" r="2.42604" fill="#FF7F4E"/>
<circle cx="49.968" cy="12.6366" r="2.42604" fill="#FF7F4E"/>
<circle cx="59.9147" cy="60.4295" r="2.42604" fill="#FF7F4E"/>
<circle cx="50.2106" cy="70.1336" r="2.42604" fill="#FF7F4E"/>
<circle cx="40.5064" cy="70.1336" r="2.42604" fill="#FF7F4E"/>
<circle cx="30.8023" cy="70.1336" r="2.42604" fill="#FF7F4E"/>
<circle cx="21.0981" cy="60.4295" r="2.42604" fill="#FF7F4E"/>
<circle cx="20.8555" cy="22.3407" r="2.42604" fill="#FF7F4E"/>
<circle cx="40.5064" cy="79.8378" r="2.42604" fill="#FF7F4E"/>
<circle cx="40.5064" cy="2.68983" r="2.42604" fill="#FF7F4E"/>
</svg>
