<svg width="40" height="40" viewBox="0 0 40 40" fill="none" xmlns="http://www.w3.org/2000/svg">
<path fill-rule="evenodd" clip-rule="evenodd" d="M20 40.0005C31.0457 40.0005 40 31.0462 40 20.0005C40 8.95479 31.0457 0.000488281 20 0.000488281C8.9543 0.000488281 0 8.95479 0 20.0005C0 31.0462 8.9543 40.0005 20 40.0005ZM25.6832 22.7555L29.8596 19.1107H29.8643C30.0852 18.9201 30.245 18.6685 30.3235 18.3876C30.4021 18.1066 30.3959 17.8086 30.3058 17.5311C30.2157 17.2536 30.0457 17.0089 29.8171 16.8276C29.5885 16.6464 29.3114 16.5366 29.0207 16.5122L23.5163 16.0353L21.3605 10.9087C21.2482 10.6397 21.0589 10.41 20.8164 10.2483C20.5738 10.0867 20.2888 10.0005 19.9974 10.0005C19.7059 10.0005 19.4209 10.0867 19.1784 10.2483C18.9358 10.41 18.7465 10.6397 18.6342 10.9087L16.4849 16.0353L10.9787 16.5122C10.6879 16.5366 10.4109 16.6464 10.1823 16.8276C9.95362 17.0089 9.7836 17.2536 9.6935 17.5311C9.60341 17.8086 9.59725 18.1066 9.6758 18.3876C9.75435 18.6685 9.91412 18.9201 10.1351 19.1107L14.3124 22.7611L13.0632 28.1821C12.997 28.4658 13.0159 28.7627 13.1175 29.0357C13.2191 29.3087 13.399 29.5457 13.6346 29.7171C13.8701 29.8884 14.151 29.9865 14.442 29.9991C14.7331 30.0117 15.0214 29.9382 15.2709 29.7879L19.9937 26.9171L24.7266 29.7879C24.9761 29.9382 25.2644 30.0117 25.5554 29.9991C25.8465 29.9865 26.1273 29.8884 26.3629 29.7171C26.5985 29.5457 26.7784 29.3087 26.88 29.0357C26.9816 28.7627 27.0005 28.4658 26.9343 28.1821L25.6832 22.7555Z" fill="url(#paint0_linear_2133_3000)"/>
<defs>
<linearGradient id="paint0_linear_2133_3000" x1="1.5711" y1="-2.63872" x2="50.8608" y2="10.8201" gradientUnits="userSpaceOnUse">
<stop stop-color="#00D900"/>
<stop offset="1" stop-color="#FAED00"/>
</linearGradient>
</defs>
</svg>
