<svg width="198" height="44" viewBox="0 0 198 44" fill="none" xmlns="http://www.w3.org/2000/svg">
    <g clip-path="url(#clip0_1816_3712)">
        <mask id="mask0_1816_3712" style="mask-type:alpha" maskUnits="userSpaceOnUse" x="0" y="0" width="26" height="26">
            <path d="M0 12.845C0 19.9382 5.74969 25.69 12.845 25.69C19.9403 25.69 25.69 19.9382 25.69 12.845C25.69 12.0597 25.62 11.2893 25.4841 10.5443L22.7186 12.5818C22.7186 12.6688 22.7228 12.758 22.7228 12.845C22.7228 18.2912 18.2912 22.7228 12.845 22.7228C7.39882 22.7228 2.96717 18.2912 2.96717 12.845C2.96717 7.39882 7.39882 2.96717 12.845 2.96717C14.908 2.96717 16.8267 3.6039 18.4143 4.69059L20.9124 2.85044C18.7072 1.06759 15.9013 0 12.845 0C5.75181 0 0 5.74969 0 12.845Z" fill="#797979"/>
        </mask>
        <g mask="url(#mask0_1816_3712)">
            <circle cx="12.845" cy="12.845" r="12.845" fill="url(#paint0_linear_1816_3712)"/>
        </g>
        <mask id="mask1_1816_3712" style="mask-type:alpha" maskUnits="userSpaceOnUse" x="0" y="0" width="21" height="13">
            <path d="M12.845 2.96717C7.39882 2.96717 2.96717 7.39882 2.96717 12.845H0C0 5.74969 5.75181 0 12.845 0C15.9013 0 18.7072 1.06759 20.9124 2.85044L18.4143 4.69059C16.8267 3.6039 14.908 2.96717 12.845 2.96717Z" fill="#D9D9D9"/>
        </mask>
        <g mask="url(#mask1_1816_3712)">
            <circle cx="12.845" cy="12.845" r="12.845" fill="url(#paint1_linear_1816_3712)"/>
        </g>
        <path d="M23.0072 4.99414C23.6142 5.77732 24.1321 6.63479 24.546 7.54743L12.8429 16.173L7.95276 13.1082V9.42155L12.8429 12.4864L23.0072 4.99626V4.99414Z" fill="#21A038"/>
    </g>
    <path d="M74.5318 7.73588L78.0116 5.16992H66.3643V20.5763H78.0116V18.0103H69.6875V14.0672H76.7868V11.5013H69.6875V7.73588H74.5318Z" fill="#21A038"/>
    <path d="M57.57 11.1755H53.5254V7.73588H59.9837L63.4635 5.16992H50.2021V20.5763H57.1427C61.035 20.5763 63.2689 18.812 63.2689 15.7363C63.2689 12.6605 61.2445 11.1755 57.5722 11.1755M56.9925 18.0103H53.5254V13.7393H56.9925C59.1016 13.7393 60.0852 14.4543 60.0852 15.8738C60.0852 17.2932 59.0445 18.0082 56.9925 18.0082" fill="#21A038"/>
    <path d="M87.4474 5.16992H81.1055V20.5763H84.4287V16.2122H87.4474C91.4941 16.2122 94.0093 14.0841 94.0093 10.6847C94.0093 7.2853 91.4941 5.17203 87.4474 5.17203M87.3755 13.6484H84.4287V7.73588H87.3755C89.5057 7.73588 90.6776 8.78511 90.6776 10.6911C90.6776 12.597 89.5035 13.6463 87.3755 13.6463" fill="#21A038"/>
    <path d="M44.4949 17.2403C43.6424 17.7099 42.6503 17.9595 41.6243 17.9595C38.6268 17.9595 36.4522 15.8208 36.4522 12.8741C36.4522 9.92737 38.6268 7.78661 41.6243 7.78661C42.7582 7.78661 43.7736 8.10603 44.6472 8.73219L47.0312 6.9743L46.8747 6.8368C45.4828 5.6141 43.6213 4.9668 41.4953 4.9668C39.1874 4.9668 37.0953 5.74526 35.5997 7.15834C34.0957 8.57988 33.2686 10.5789 33.2686 12.7874C33.2686 14.9958 34.0936 17.0351 35.5912 18.501C37.0932 19.9691 39.1832 20.7793 41.4741 20.7793C43.7651 20.7793 45.963 19.9437 47.3824 18.4249C46.2866 17.6189 45.2311 16.8383 45.2311 16.8383L44.4949 17.2424V17.2403Z" fill="#21A038"/>
    <path d="M36.7148 37.2159L45.1235 25.7061H48.1168V41.1103H45.3646V29.4249L36.9137 41.1103H33.9648V25.7061H36.7148V37.2159Z" fill="#1C4F5F"/>
    <path d="M63.3009 34.4426H54.8732V41.1103H52.1211V25.7061H54.8732V31.9126H63.3009V25.7061H66.053V41.1103H63.3009V34.4426Z" fill="#1C4F5F"/>
    <path d="M70.0568 41.1124V25.7061H76.7478C80.181 25.7061 81.941 26.9816 81.941 29.5349C81.941 31.2949 81.2366 32.4626 79.6522 33.0782C81.5455 33.4082 82.4022 34.6182 82.4022 36.6214C82.4022 39.8136 80.1133 41.1124 76.3712 41.1124H70.0547H70.0568ZM76.3522 32.2214C78.091 32.2214 79.191 31.4514 79.191 30.1314C79.191 28.8982 78.3766 28.2382 76.4178 28.2382H72.8089V32.2214H76.3522ZM76.551 38.5824C78.6643 38.5824 79.6332 37.9013 79.6332 36.4247C79.6332 34.9482 78.5332 34.3791 76.5955 34.3791H72.811V38.5824H76.5531H76.551Z" fill="#1C4F5F"/>
    <path d="M95.368 34.4426H88.2814V38.5803H96.4235V41.1103H85.5293V25.7061H96.1824V28.2361H88.2814V31.9126H95.368V34.4426Z" fill="#1C4F5F"/>
    <path d="M112.424 39.4163C111.654 40.3407 109.63 41.354 106.967 41.354C101.949 41.3328 98.6045 38.3607 98.6045 33.3874C98.6045 28.7442 101.907 25.4653 107.011 25.4653C109.431 25.4653 111.214 26.2142 112.118 26.8509V30.6798C111.193 29.3153 109.323 27.9953 107.011 27.9953C103.643 27.9953 101.574 30.1742 101.574 33.4086C101.574 36.4019 103.402 38.7563 106.945 38.8219C109.63 38.8219 111.523 37.5886 112.426 36.0274V39.4163H112.424Z" fill="#1C4F5F"/>
    <path d="M126.685 28.2361H121.491V41.1103H118.739V28.2361H113.635V25.7061H126.685V28.2361Z" fill="#1C4F5F"/>
    <path d="M131.746 37.2159L140.153 25.7061H143.146V41.1103H140.396V29.4249L131.945 41.1103H128.996V25.7061H131.746V37.2159Z" fill="#1C4F5F"/>
    <path d="M147.152 25.7061H149.902V38.5803H157.848V25.7061H160.6V38.5803H162.381V43.9724H159.807V41.1103H147.152V25.7061Z" fill="#1C4F5F"/>
    <path d="M167.687 37.2159L176.093 25.7061H179.086V41.1103H176.334V29.4249L167.883 41.1103H164.935V25.7061H167.687V37.2159Z" fill="#1C4F5F"/>
    <path d="M185.843 37.2159L194.249 25.7061H197.243V41.1103H194.493V29.4249L186.042 41.1103H183.091V25.7061H185.843V37.2159Z" fill="#1C4F5F"/>
    <defs>
        <linearGradient id="paint0_linear_1816_3712" x1="-4.33972e-07" y1="15" x2="25.5" y2="17" gradientUnits="userSpaceOnUse">
            <stop stop-color="#EFE526"/>
            <stop offset="0.883095" stop-color="#21A038"/>
        </linearGradient>
        <linearGradient id="paint1_linear_1816_3712" x1="-3.50233e-07" y1="15" x2="26" y2="15" gradientUnits="userSpaceOnUse">
            <stop stop-color="#FAED00"/>
            <stop offset="0.411458" stop-color="#228ACB"/>
        </linearGradient>
        <clipPath id="clip0_1816_3712">
            <rect width="25.69" height="25.69" fill="white"/>
        </clipPath>
    </defs>
</svg>
